<svg xmlns="http://www.w3.org/2000/svg" xmlns:xlink="http://www.w3.org/1999/xlink" width="1026.181" height="671.627" viewBox="0 0 1026.181 671.627">
  <defs>
    <linearGradient id="linear-gradient" x1="0.5" y1="1" x2="0.5" gradientUnits="objectBoundingBox">
      <stop offset="0" stop-color="gray" stop-opacity="0.251"/>
      <stop offset="0.54" stop-color="gray" stop-opacity="0.122"/>
      <stop offset="1" stop-color="gray" stop-opacity="0.102"/>
    </linearGradient>
    <linearGradient id="linear-gradient-2" x1="0.5" y1="1" x2="0.5" y2="0" xlink:href="#linear-gradient"/>
    <linearGradient id="linear-gradient-3" x1="0.534" y1="0.873" x2="0.534" y2="-0.128" xlink:href="#linear-gradient"/>
    <linearGradient id="linear-gradient-4" x1="0.56" y1="1.03" x2="0.56" y2="0.03" xlink:href="#linear-gradient"/>
    <linearGradient id="linear-gradient-5" x1="0.478" y1="1.079" x2="0.478" y2="0.079" xlink:href="#linear-gradient"/>
    <linearGradient id="linear-gradient-6" x1="0.266" y1="1.244" x2="0.705" y2="-0.623" xlink:href="#linear-gradient"/>
  </defs>
  <g id="undraw_Working_32n9" transform="translate(0.01 -0.021)">
    <circle id="Elipse_1" data-name="Elipse 1" cx="105" cy="105" r="105" transform="translate(615.55 325.76)" fill="url(#linear-gradient)"/>
    <circle id="Elipse_2" data-name="Elipse 2" cx="100" cy="100" r="100" transform="translate(620.55 330.76)" fill="#f5f5f5"/>
    <g id="Grupo_1" data-name="Grupo 1" opacity="0.5">
      <path id="Caminho_1" data-name="Caminho 1" d="M811,482.47a62.52,62.52,0,0,0-64.27,55.82h-18a3.64,3.64,0,0,0-3.64,3.64v6a3.65,3.65,0,0,0,3.64,3.65h18A62.5,62.5,0,1,0,811,482.47Z" transform="translate(-87.65 -114.18)" fill="url(#linear-gradient-2)"/>
    </g>
    <path id="Caminho_2" data-name="Caminho 2" d="M810.19,486.22a58.75,58.75,0,0,0-60.41,52.47H732.36a2.91,2.91,0,0,0-2.91,2.91v6.67a2.91,2.91,0,0,0,2.91,2.92h17.42a58.75,58.75,0,1,0,60.41-65Z" transform="translate(-87.65 -114.18)" fill="#6c63ff"/>
    <circle id="Elipse_3" data-name="Elipse 3" cx="41.25" cy="41.25" r="41.25" transform="translate(679.3 389.51)" fill="#795548"/>
    <path id="Caminho_3" data-name="Caminho 3" d="M829.45,524.94s11.77,18.28,8.4,32.5C837.85,557.44,851.3,535.09,829.45,524.94Z" transform="translate(-87.65 -114.18)" fill="#fff" opacity="0.2"/>
    <circle id="Elipse_4" data-name="Elipse 4" cx="3.75" cy="3.75" r="3.75" transform="translate(743.05 449.51)" fill="#fff" opacity="0.2"/>
    <rect id="Retângulo_1" data-name="Retângulo 1" width="213.27" height="308.72" transform="matrix(0.975, -0.221, 0.221, 0.975, -0.01, 95.803)" fill="url(#linear-gradient-3)"/>
    <rect id="Retângulo_2" data-name="Retângulo 2" width="213.27" height="308.72" transform="matrix(0.975, -0.221, 0.221, 0.975, 215.288, 47.09)" fill="url(#linear-gradient-4)"/>
    <rect id="Retângulo_3" data-name="Retângulo 3" width="207.97" height="302.01" transform="matrix(0.975, -0.221, 0.221, 0.975, 3.728, 98.778)" fill="#6c63ff"/>
    <rect id="Retângulo_4" data-name="Retângulo 4" width="207.97" height="302.01" transform="matrix(0.975, -0.221, 0.221, 0.975, 217.638, 50.372)" fill="#f5f5f5"/>
    <rect id="Retângulo_5" data-name="Retângulo 5" width="124.88" height="20.81" transform="matrix(0.975, -0.221, 0.221, 0.975, 47.137, 122.475)" fill="#f5f5f5"/>
    <rect id="Retângulo_6" data-name="Retângulo 6" width="166.5" height="5.2" transform="matrix(0.975, -0.221, 0.221, 0.975, 37.939, 176.133)" fill="#f5f5f5"/>
    <rect id="Retângulo_7" data-name="Retângulo 7" width="166.5" height="5.2" transform="matrix(0.975, -0.221, 0.221, 0.975, 40.616, 187.969)" fill="#f5f5f5"/>
    <rect id="Retângulo_8" data-name="Retângulo 8" width="166.5" height="5.2" transform="matrix(0.975, -0.221, 0.221, 0.975, 43.303, 199.806)" fill="#f5f5f5"/>
    <rect id="Retângulo_9" data-name="Retângulo 9" width="79.78" height="5.2" transform="matrix(0.975, -0.221, 0.221, 0.975, 45.975, 211.65)" fill="#f5f5f5"/>
    <rect id="Retângulo_10" data-name="Retângulo 10" width="91.92" height="5.2" transform="matrix(0.975, -0.221, 0.221, 0.975, 48.663, 223.503)" fill="#f5f5f5"/>
    <rect id="Retângulo_11" data-name="Retângulo 11" width="166.5" height="5.2" transform="matrix(0.975, -0.221, 0.221, 0.975, 51.336, 235.345)" fill="#f5f5f5"/>
    <rect id="Retângulo_12" data-name="Retângulo 12" width="166.5" height="5.2" transform="matrix(0.975, -0.221, 0.221, 0.975, 54.023, 247.182)" fill="#f5f5f5"/>
    <rect id="Retângulo_13" data-name="Retângulo 13" width="154.36" height="5.2" transform="matrix(0.975, -0.221, 0.221, 0.975, 56.702, 259.022)" fill="#f5f5f5"/>
    <rect id="Retângulo_14" data-name="Retângulo 14" width="166.5" height="5.2" transform="matrix(0.975, -0.221, 0.221, 0.975, 59.377, 270.865)" fill="#f5f5f5"/>
    <rect id="Retângulo_15" data-name="Retângulo 15" width="86.72" height="5.2" transform="matrix(0.975, -0.221, 0.221, 0.975, 62.054, 282.708)" fill="#f5f5f5"/>
    <rect id="Retângulo_16" data-name="Retângulo 16" width="91.92" height="5.2" transform="matrix(0.975, -0.221, 0.221, 0.975, 285.033, 246.479)" fill="#6c63ff" opacity="0.3"/>
    <rect id="Retângulo_17" data-name="Retângulo 17" width="166.5" height="5.2" transform="matrix(0.975, -0.221, 0.221, 0.975, 287.707, 258.322)" fill="#6c63ff" opacity="0.3"/>
    <rect id="Retângulo_18" data-name="Retângulo 18" width="166.5" height="5.2" transform="matrix(0.975, -0.221, 0.221, 0.975, 290.393, 270.158)" fill="#6c63ff" opacity="0.3"/>
    <rect id="Retângulo_19" data-name="Retângulo 19" width="154.36" height="5.2" transform="matrix(0.975, -0.221, 0.221, 0.975, 293.073, 281.999)" fill="#6c63ff" opacity="0.3"/>
    <rect id="Retângulo_20" data-name="Retângulo 20" width="166.5" height="5.2" transform="matrix(0.975, -0.221, 0.221, 0.975, 295.747, 293.841)" fill="#6c63ff" opacity="0.3"/>
    <rect id="Retângulo_21" data-name="Retângulo 21" width="86.72" height="5.2" transform="matrix(0.975, -0.221, 0.221, 0.975, 298.425, 305.685)" fill="#6c63ff" opacity="0.3"/>
    <rect id="Retângulo_22" data-name="Retângulo 22" width="100.59" height="69.38" transform="matrix(0.975, -0.221, 0.221, 0.975, 127.543, 289.226)" fill="#f5f5f5"/>
    <rect id="Retângulo_23" data-name="Retângulo 23" width="100.59" height="69.38" transform="matrix(0.975, -0.221, 0.221, 0.975, 243.693, 63.773)" fill="#6c63ff" opacity="0.3"/>
    <rect id="Retângulo_24" data-name="Retângulo 24" width="100.59" height="69.38" transform="matrix(0.975, -0.221, 0.221, 0.975, 339.717, 134.515)" fill="#6c63ff" opacity="0.3"/>
    <rect id="Retângulo_25" data-name="Retângulo 25" width="213.27" height="308.72" rx="13.44" transform="matrix(0.975, -0.221, 0.221, 0.975, 291.579, 116.977)" fill="url(#linear-gradient-5)"/>
    <rect id="Retângulo_26" data-name="Retângulo 26" width="207.97" height="302.01" rx="13.44" transform="matrix(0.975, -0.221, 0.221, 0.975, 293.939, 120.259)" fill="#6c63ff"/>
    <g id="Grupo_2" data-name="Grupo 2" opacity="0.5">
      <rect id="Retângulo_27" data-name="Retângulo 27" width="3" height="17" transform="translate(220.35 542.11)" fill="#47e6b1"/>
      <rect id="Retângulo_28" data-name="Retângulo 28" width="3" height="17" transform="translate(230.35 549.11) rotate(90)" fill="#47e6b1"/>
    </g>
    <g id="Grupo_3" data-name="Grupo 3" opacity="0.5">
      <rect id="Retângulo_29" data-name="Retângulo 29" width="3" height="17" transform="translate(726.55 32.76)" fill="#47e6b1"/>
      <rect id="Retângulo_30" data-name="Retângulo 30" width="3" height="17" transform="translate(736.55 39.76) rotate(90)" fill="#47e6b1"/>
    </g>
    <g id="Grupo_4" data-name="Grupo 4" opacity="0.5">
      <rect id="Retângulo_31" data-name="Retângulo 31" width="3" height="17" transform="translate(636.55 249.76)" fill="#47e6b1"/>
      <rect id="Retângulo_32" data-name="Retângulo 32" width="3" height="17" transform="translate(646.55 256.76) rotate(90)" fill="#47e6b1"/>
    </g>
    <g id="Grupo_5" data-name="Grupo 5" opacity="0.5">
      <rect id="Retângulo_33" data-name="Retângulo 33" width="3" height="17" transform="translate(894.15 288.76)" fill="#47e6b1"/>
      <rect id="Retângulo_34" data-name="Retângulo 34" width="3" height="17" transform="translate(904.14 295.77) rotate(90)" fill="#47e6b1"/>
    </g>
    <path id="Caminho_4" data-name="Caminho 4" d="M482.69,654.59a3.68,3.68,0,0,1-2.05-4.44,1.15,1.15,0,0,0,.08-.41h0a1.84,1.84,0,0,0-3.31-1.22h0a2.521,2.521,0,0,0-.2.36,3.67,3.67,0,0,1-4.44,2,1.861,1.861,0,0,0-.41-.08h0a1.84,1.84,0,0,0-1.22,3.31h0a1.88,1.88,0,0,0,.36.21,3.67,3.67,0,0,1,2.05,4.44,1.89,1.89,0,0,0-.08.4h0a1.84,1.84,0,0,0,3.31,1.23h0a1.9,1.9,0,0,0,.2-.37,3.68,3.68,0,0,1,4.45-2,1.774,1.774,0,0,0,.4.08h0a1.84,1.84,0,0,0,1.22-3.31h0A1.62,1.62,0,0,0,482.69,654.59Z" transform="translate(-87.65 -114.18)" fill="#4d8af0" opacity="0.5"/>
    <path id="Caminho_5" data-name="Caminho 5" d="M628.89,779.24a3.68,3.68,0,0,1-2-4.44,1.854,1.854,0,0,0,.08-.41h0a1.84,1.84,0,0,0-3.31-1.22h0a1.821,1.821,0,0,0-.2.36,3.66,3.66,0,0,1-4.44,2.05,2,2,0,0,0-.41-.08h0a1.84,1.84,0,0,0-1.22,3.31h0a1.62,1.62,0,0,0,.36.21,3.68,3.68,0,0,1,2,4.44,1.858,1.858,0,0,0-.08.41h0a1.84,1.84,0,0,0,3.31,1.22h0a1.651,1.651,0,0,0,.2-.37,3.67,3.67,0,0,1,4.44-2,2,2,0,0,0,.41.08h0a1.84,1.84,0,0,0,1.22-3.31h0A1.619,1.619,0,0,0,628.89,779.24Z" transform="translate(-87.65 -114.18)" fill="#4d8af0" opacity="0.5"/>
    <path id="Caminho_6" data-name="Caminho 6" d="M847.89,348.24a3.68,3.68,0,0,1-2-4.44,1.854,1.854,0,0,0,.08-.41h0a1.84,1.84,0,0,0-3.31-1.22h0a1.822,1.822,0,0,0-.2.36,3.66,3.66,0,0,1-4.44,2.05,2,2,0,0,0-.41-.08h0a1.84,1.84,0,0,0-1.22,3.31h0a1.618,1.618,0,0,0,.36.21,3.68,3.68,0,0,1,2,4.44,1.862,1.862,0,0,0-.08.41h0a1.84,1.84,0,0,0,3.31,1.22h0a1.647,1.647,0,0,0,.2-.37,3.67,3.67,0,0,1,4.44-2,2,2,0,0,0,.41.08h0a1.84,1.84,0,0,0,1.22-3.31h0a1.619,1.619,0,0,0-.36-.25Z" transform="translate(-87.65 -114.18)" fill="#4d8af0" opacity="0.5"/>
    <path id="Caminho_7" data-name="Caminho 7" d="M999.89,509.24a3.68,3.68,0,0,1-2-4.44,1.843,1.843,0,0,0,.08-.41h0a1.84,1.84,0,0,0-3.31-1.22h0a1.824,1.824,0,0,0-.2.36,3.66,3.66,0,0,1-4.44,2.05,2,2,0,0,0-.41-.08h0a1.84,1.84,0,0,0-1.22,3.31h0a1.619,1.619,0,0,0,.36.21,3.68,3.68,0,0,1,2,4.44,1.866,1.866,0,0,0-.08.41h0a1.84,1.84,0,0,0,3.31,1.22h0a1.647,1.647,0,0,0,.2-.37,3.67,3.67,0,0,1,4.44-2,2,2,0,0,0,.41.08h0a1.84,1.84,0,0,0,1.22-3.31h0a1.62,1.62,0,0,0-.36-.25Z" transform="translate(-87.65 -114.18)" fill="#4d8af0" opacity="0.5"/>
    <circle id="Elipse_5" data-name="Elipse 5" cx="6" cy="6" r="6" transform="translate(136.35 481.11)" fill="#f55f44" opacity="0.5"/>
    <circle id="Elipse_6" data-name="Elipse 6" cx="6" cy="6" r="6" transform="translate(517.55 44.76)" fill="#4d8af0" opacity="0.5"/>
    <circle id="Elipse_7" data-name="Elipse 7" cx="6" cy="6" r="6" transform="translate(492.55 483.76)" fill="#47e6b1" opacity="0.5"/>
    <circle id="Elipse_8" data-name="Elipse 8" cx="6" cy="6" r="6" transform="translate(838.55 633.76)" fill="#f55f44" opacity="0.5"/>
    <g id="Grupo_6" data-name="Grupo 6" opacity="0.5">
      <path id="Caminho_8" data-name="Caminho 8" d="M848.9,203.3h286a6.29,6.29,0,0,1,6.29,6.29V362.51a6.29,6.29,0,0,1-6.29,6.29h-286a6.28,6.28,0,0,1-6.28-6.28V209.58A6.29,6.29,0,0,1,848.9,203.3Z" transform="translate(346.54 1040.57) rotate(-73.39)" fill="url(#linear-gradient-6)"/>
    </g>
    <rect id="Retângulo_35" data-name="Retângulo 35" width="161.02" height="290.64" rx="13.64" transform="translate(868.698 9.466) rotate(16.61)" fill="#fff"/>
    <path id="Caminho_9" data-name="Caminho 9" d="M1070.15,165.27a13,13,0,0,1-15.5,7l-53.29-15.91A13.05,13.05,0,0,1,992.2,142L964,133.59a6.13,6.13,0,0,0-7.61,4.11L880.92,390.53a6.11,6.11,0,0,0,4.12,7.6l134.84,40.24a6.11,6.11,0,0,0,7.6-4.11l75.44-252.83a6.1,6.1,0,0,0-4.11-7.6Z" transform="translate(-87.65 -114.18)" fill="#e0e0e0"/>
    <rect id="Retângulo_36" data-name="Retângulo 36" width="35.88" height="2.24" rx="1.12" transform="matrix(0.962, 0.274, -0.274, 0.962, 924.097, 37.507)" fill="#dbdbdb"/>
    <circle id="Elipse_9" data-name="Elipse 9" cx="1.35" cy="1.35" r="1.35" transform="translate(964.33 48.97)" fill="#dbdbdb"/>
    <rect id="Retângulo_37" data-name="Retângulo 37" width="44" height="38" transform="translate(871.591 69.419) rotate(15.4)" fill="#fff"/>
    <rect id="Retângulo_38" data-name="Retângulo 38" width="44" height="38" transform="translate(856.973 122.446) rotate(15.4)" fill="#6c63ff" opacity="0.3"/>
    <rect id="Retângulo_39" data-name="Retângulo 39" width="44" height="38" transform="translate(842.377 175.465) rotate(15.4)" fill="#fff"/>
    <rect id="Retângulo_40" data-name="Retângulo 40" width="44" height="38" transform="translate(827.759 228.491) rotate(15.4)" fill="#3ad29f" opacity="0.3"/>
    <rect id="Retângulo_41" data-name="Retângulo 41" width="58" height="4" transform="translate(922.222 92.694) rotate(15.4)" fill="#fff"/>
    <rect id="Retângulo_42" data-name="Retângulo 42" width="58" height="4" transform="translate(919.034 104.261) rotate(15.4)" fill="#fff"/>
    <rect id="Retângulo_43" data-name="Retângulo 43" width="58" height="4" transform="translate(907.879 144.767) rotate(15.4)" fill="#fff"/>
    <rect id="Retângulo_44" data-name="Retângulo 44" width="58" height="4" transform="translate(904.694 156.324) rotate(15.4)" fill="#fff"/>
    <rect id="Retângulo_45" data-name="Retângulo 45" width="58" height="4" transform="translate(893.539 196.829) rotate(15.4)" fill="#fff"/>
    <rect id="Retângulo_46" data-name="Retângulo 46" width="58" height="4" transform="translate(890.351 208.397) rotate(15.4)" fill="#fff"/>
    <rect id="Retângulo_47" data-name="Retângulo 47" width="58" height="4" transform="translate(879.199 248.882) rotate(15.4)" fill="#fff"/>
    <rect id="Retângulo_48" data-name="Retângulo 48" width="58" height="4" transform="translate(876.011 260.46) rotate(15.4)" fill="#fff"/>
  </g>
</svg>
